<!DOCTYPE svg PUBLIC "-//W3C//DTD SVG 20010904//EN" "http://www.w3.org/TR/2001/REC-SVG-20010904/DTD/svg10.dtd">
<svg version="1.0" xmlns="http://www.w3.org/2000/svg" width="80px" height="70px" viewBox="0 0 12000 7040" preserveAspectRatio="xMidYMid meet">
<g id="layer101" fill="#030301" stroke="none">
<path d="M5645 7030 c-153 -7 -398 -35 -630 -71 -71 -11 -161 -25 -198 -30 -37 -5 -118 -20 -180 -34 -62 -14 -121 -25 -131 -25 -11 0 -69 -12 -130 -26 -282 -65 -335 -78 -396 -95 -36 -10 -81 -21 -100 -25 -33 -6 -72 -17 -285 -81 -210 -63 -578 -188 -623 -212 -12 -6 -28 -11 -36 -11 -9 0 -44 -13 -78 -30 -34 -16 -66 -30 -72 -30 -6 0 -33 -11 -61 -25 -27 -13 -54 -25 -59 -25 -5 0 -34 -12 -65 -26 -31 -14 -78 -36 -106 -49 -210 -94 -664 -333 -706 -371 -8 -8 -19 -14 -23 -14 -10 0 -240 -148 -276 -177 -8 -7 -40 -30 -71 -50 -85 -57 -294 -221 -379 -299 -88 -80 -321 -312 -403 -402 -109 -119 -319 -410 -373 -514 -9 -18 -20 -35 -25 -38 -9 -6 -155 -298 -198 -397 -17 -39 -31 -79 -31 -89 0 -9 61 -136 136 -282 125 -244 150 -292 223 -423 14 -26 39 -71 55 -100 16 -30 31 -56 35 -59 5 -5 20 -29 55 -93 6 -12 34 -56 61 -97 28 -41 52 -79 55 -85 3 -5 23 -36 45 -69 22 -32 45 -68 52 -79 6 -11 15 -22 20 -26 5 -3 34 -42 65 -86 236 -337 691 -789 1042 -1037 45 -31 88 -63 96 -70 21 -20 277 -188 286 -188 4 0 16 -8 27 -17 20 -19 36 -28 220 -131 61 -35 119 -67 127 -72 32 -20 459 -230 540 -265 47 -20 108 -48 137 -61 28 -13 55 -24 58 -24 4 0 21 -7 38 -15 55 -25 181 -76 202 -82 11 -3 47 -15 80 -28 63 -25 154 -58 270 -98 39 -14 93 -32 120 -42 28 -10 70 -23 95 -30 25 -7 70 -22 100 -33 51 -18 107 -35 325 -98 44 -13 118 -34 165 -48 47 -14 106 -30 130 -35 25 -5 81 -19 125 -31 287 -77 298 -80 310 -60 18 29 209 150 237 150 7 0 26 7 43 16 29 15 181 58 260 74 152 30 444 18 584 -24 131 -40 311 -119 331 -146 3 -4 24 -19 48 -34 l42 -26 68 16 c223 53 428 109 522 141 25 8 68 21 95 28 51 14 156 49 210 71 17 7 57 21 90 32 53 18 103 37 265 102 205 81 517 227 715 335 55 30 116 62 135 71 19 9 46 24 60 34 14 9 50 30 80 45 30 16 62 34 70 41 8 7 38 24 65 40 28 15 52 30 55 34 3 3 32 21 65 40 33 18 69 41 80 50 11 9 47 34 80 55 104 64 415 282 430 301 6 7 49 40 95 74 112 83 381 309 504 423 198 185 472 468 584 605 42 53 96 117 119 143 47 54 196 250 260 343 23 34 50 70 59 81 9 11 35 49 58 84 113 176 147 230 171 271 14 25 30 52 35 60 26 39 115 201 147 267 27 55 34 79 27 93 -8 18 -182 203 -470 500 -66 69 -127 133 -135 142 -13 17 -277 272 -514 496 -59 57 -174 158 -254 224 -80 67 -156 131 -168 144 -19 19 -199 160 -291 229 -118 87 -143 105 -152 105 -6 0 -10 4 -10 9 0 8 -92 72 -229 158 -36 23 -71 45 -76 50 -6 5 -33 22 -60 38 -28 16 -52 32 -55 36 -3 3 -36 23 -75 44 -38 20 -99 54 -135 75 -60 36 -374 194 -480 243 -25 11 -52 24 -61 28 -9 4 -63 26 -120 49 -57 23 -129 52 -159 65 -59 24 -299 106 -440 149 -47 14 -122 37 -167 51 -45 14 -89 25 -98 25 -9 0 -55 11 -103 24 -347 97 -1089 213 -1512 237 -167 9 -370 9 -585 -1z"/>
</g>
<g id="layer102" fill="#d92229" stroke="none">
<path d="M5645 7030 c-153 -7 -398 -35 -630 -71 -71 -11 -161 -25 -198 -30 -37 -5 -118 -20 -180 -34 -62 -14 -121 -25 -131 -25 -11 0 -69 -12 -130 -26 -282 -65 -335 -78 -396 -95 -36 -10 -81 -21 -100 -25 -33 -6 -72 -17 -285 -81 -210 -63 -578 -188 -623 -212 -12 -6 -28 -11 -36 -11 -9 0 -44 -13 -78 -30 -34 -16 -66 -30 -72 -30 -6 0 -33 -11 -61 -25 -27 -13 -54 -25 -59 -25 -5 0 -34 -12 -65 -26 -31 -14 -78 -36 -106 -49 -210 -94 -664 -333 -706 -371 -8 -8 -19 -14 -23 -14 -10 0 -240 -148 -276 -177 -8 -7 -40 -30 -71 -50 -85 -57 -294 -221 -379 -299 -88 -80 -321 -312 -403 -402 -109 -119 -319 -410 -373 -514 -9 -18 -20 -35 -25 -38 -9 -6 -155 -298 -198 -397 -17 -39 -31 -79 -31 -89 0 -9 61 -136 136 -282 125 -244 150 -292 223 -423 14 -26 39 -71 55 -100 16 -30 31 -56 35 -59 5 -5 20 -29 55 -93 6 -12 34 -56 61 -97 28 -41 52 -79 55 -85 3 -5 23 -36 45 -69 22 -32 45 -68 52 -79 6 -11 15 -22 20 -26 5 -3 34 -42 65 -86 236 -337 691 -789 1042 -1037 45 -31 88 -63 96 -70 21 -20 277 -188 286 -188 4 0 16 -8 27 -17 20 -19 36 -28 220 -131 61 -35 119 -67 127 -72 32 -20 459 -230 540 -265 47 -20 108 -48 137 -61 28 -13 55 -24 58 -24 4 0 21 -7 38 -15 55 -25 181 -76 202 -82 11 -3 47 -15 80 -28 63 -25 154 -58 270 -98 39 -14 93 -32 120 -42 28 -10 70 -23 95 -30 25 -7 70 -22 100 -33 51 -18 107 -35 325 -98 44 -13 118 -34 165 -48 47 -14 106 -30 130 -35 25 -5 81 -19 125 -31 287 -77 298 -80 310 -60 18 29 209 150 237 150 7 0 26 7 43 16 29 15 181 58 260 74 152 30 444 18 584 -24 131 -40 311 -119 331 -146 3 -4 24 -19 48 -34 l42 -26 68 16 c223 53 428 109 522 141 25 8 68 21 95 28 51 14 156 49 210 71 17 7 57 21 90 32 53 18 103 37 265 102 205 81 517 227 715 335 55 30 116 62 135 71 19 9 46 24 60 34 14 9 50 30 80 45 30 16 62 34 70 41 8 7 38 24 65 40 28 15 52 30 55 34 3 3 32 21 65 40 33 18 69 41 80 50 11 9 47 34 80 55 104 64 415 282 430 301 6 7 49 40 95 74 112 83 381 309 504 423 198 185 472 468 584 605 42 53 96 117 119 143 47 54 196 250 260 343 23 34 50 70 59 81 9 11 35 49 58 84 113 176 147 230 171 271 14 25 30 52 35 60 26 39 115 201 147 267 27 55 34 79 27 93 -8 18 -182 203 -470 500 -66 69 -127 133 -135 142 -13 17 -277 272 -514 496 -59 57 -174 158 -254 224 -80 67 -156 131 -168 144 -19 19 -199 160 -291 229 -118 87 -143 105 -152 105 -6 0 -10 4 -10 9 0 8 -92 72 -229 158 -36 23 -71 45 -76 50 -6 5 -33 22 -60 38 -28 16 -52 32 -55 36 -3 3 -36 23 -75 44 -38 20 -99 54 -135 75 -60 36 -374 194 -480 243 -25 11 -52 24 -61 28 -9 4 -63 26 -120 49 -57 23 -129 52 -159 65 -59 24 -299 106 -440 149 -47 14 -122 37 -167 51 -45 14 -89 25 -98 25 -9 0 -55 11 -103 24 -347 97 -1089 213 -1512 237 -167 9 -370 9 -585 -1z m221 -1662 c-3 -101 -9 -224 -12 -274 -6 -83 -4 -94 14 -112 11 -11 42 -25 68 -30 66 -14 448 -33 724 -35 203 -2 228 0 253 16 74 48 92 133 84 393 l-6 194 50 0 49 0 0 -52 c1 -29 5 -73 11 -98 5 -25 12 -61 15 -80 4 -19 26 -77 51 -128 96 -200 271 -329 471 -347 96 -8 92 4 61 -161 l-22 -114 -51 5 c-28 3 -87 9 -131 14 -44 5 -89 9 -100 8 -11 0 -56 0 -100 1 l-80 2 -23 73 c-12 39 -22 77 -22 83 0 6 -13 41 -30 77 l-30 66 -120 0 c-66 1 -176 6 -243 13 -166 16 -704 15 -720 -1 -23 -23 -22 -538 3 -860 15 -203 21 -372 20 -595 0 -171 4 -317 8 -324 7 -10 36 -11 148 -2 76 7 147 12 156 13 13 1 21 19 33 67 23 100 16 546 -12 740 -35 236 -49 423 -44 568 l1 22 211 0 211 0 -3 38 c-2 20 1 86 5 147 7 88 11 105 18 85 6 -14 32 -86 59 -160 26 -74 60 -166 74 -205 218 -580 301 -880 312 -1135 l6 -125 174 -3 c171 -2 175 -2 194 20 22 26 171 322 193 383 87 245 146 426 146 450 0 8 11 57 24 108 33 125 73 348 86 482 7 61 14 120 17 131 4 20 -1 23 -69 34 -40 6 -104 17 -142 24 l-68 12 128 13 c226 22 289 79 358 321 15 52 36 127 48 165 l22 70 8 -60 c25 -175 95 -404 134 -436 8 -6 14 -18 14 -25 0 -25 133 -149 185 -174 138 -64 330 -22 442 98 l41 45 11 -41 c53 -194 177 -291 360 -280 55 3 92 12 133 32 60 28 139 101 166 151 l16 30 15 -61 c29 -110 126 -211 224 -234 64 -15 316 -12 368 3 65 20 126 62 161 112 18 25 35 45 39 45 5 0 20 -10 35 -23 26 -23 27 -25 16 -85 -24 -135 55 -305 172 -372 45 -27 60 -30 135 -30 76 0 90 3 140 31 l55 32 34 -39 c56 -66 199 -249 211 -273 13 -24 15 -20 -42 -96 -12 -16 -44 -59 -70 -94 -26 -36 -54 -69 -61 -75 -11 -10 -119 -143 -138 -170 -4 -7 -22 3 -45 26 -61 58 -116 81 -184 76 -50 -4 -65 -10 -106 -44 -38 -33 -52 -53 -70 -105 -24 -69 -29 -144 -13 -197 9 -33 8 -33 -43 21 -75 77 -103 90 -196 85 -70 -3 -81 -7 -136 -44 -90 -62 -147 -152 -168 -267 l-12 -66 -45 51 c-69 80 -178 119 -367 133 -150 11 -202 1 -275 -53 -85 -65 -168 -186 -168 -248 0 -42 -18 -35 -44 18 -53 112 -118 175 -240 232 -144 68 -368 102 -501 77 -72 -13 -187 -66 -235 -108 -19 -17 -65 -56 -102 -87 -37 -31 -86 -82 -110 -114 -41 -54 -93 -174 -100 -232 -3 -18 -10 -5 -26 46 -67 217 -276 388 -557 455 -27 7 -63 18 -80 25 -137 57 -222 77 -346 82 -70 2 -162 -1 -205 -6 -75 -11 -187 -47 -216 -71 -7 -6 -53 -41 -103 -78 -49 -37 -99 -78 -110 -92 -28 -35 -85 -130 -85 -142 0 -5 -12 -32 -26 -60 -41 -82 -80 -225 -95 -349 l-13 -115 -18 108 c-19 123 -33 158 -129 327 -56 100 -102 159 -147 189 -20 13 -48 32 -62 41 -55 37 -180 89 -280 116 -103 29 -109 29 -365 29 l-260 0 -65 -34 c-36 -19 -92 -57 -125 -86 -33 -28 -88 -73 -122 -100 -69 -52 -102 -91 -149 -174 l-32 -55 -32 65 c-46 90 -101 168 -149 212 -85 77 -307 157 -434 157 -57 0 -153 -25 -247 -65 -30 -13 -104 -33 -165 -45 -138 -27 -185 -49 -220 -102 -26 -39 -85 -205 -85 -239 0 -22 -31 -122 -36 -117 -2 3 -18 72 -35 154 -17 82 -38 164 -46 181 -36 76 -170 192 -312 269 -136 74 -308 44 -445 -77 -34 -29 -120 -148 -150 -206 -21 -42 -33 -42 -41 0 -35 159 -193 287 -355 287 -95 0 -137 -17 -206 -85 l-64 -63 -22 37 c-31 53 -67 89 -117 119 -36 21 -56 25 -120 26 -42 0 -82 -2 -89 -5 -14 -4 -56 49 -158 201 -32 47 -63 90 -69 95 -6 6 -32 42 -58 80 -26 39 -78 115 -117 170 -38 55 -69 107 -70 116 0 19 50 124 93 194 71 115 207 260 371 395 l88 73 22 -25 c33 -39 79 -67 147 -88 124 -40 255 -15 346 65 28 25 56 45 62 45 6 0 25 -9 43 -20 38 -23 95 -26 141 -6 36 15 111 89 134 132 8 16 21 41 29 56 l14 28 46 -35 c25 -19 55 -37 67 -40 227 -51 317 -56 383 -25 71 35 103 132 111 333 3 75 9 137 13 137 3 0 14 -16 23 -36 49 -102 166 -220 277 -279 61 -31 76 -35 146 -35 68 0 84 4 133 31 115 64 199 176 247 330 l26 80 24 -49 c47 -94 130 -160 265 -210 71 -26 81 -27 269 -27 213 0 263 8 367 56 72 34 118 83 161 172 20 41 31 55 31 40 2 -55 96 -114 206 -128 28 -3 84 -10 125 -15 148 -18 349 -30 533 -31 186 -2 187 -2 227 25 90 59 115 149 130 461 5 105 9 191 9 193 1 1 8 2 17 2 15 0 16 -18 10 -182z m1632 -1174 c61 -4 82 -10 82 -20 0 -8 -11 -56 -24 -107 -26 -102 -54 -256 -61 -331 -2 -27 -8 -53 -13 -58 -15 -15 -128 284 -159 422 -8 36 -17 76 -20 89 -6 23 -5 23 53 17 33 -3 96 -8 142 -12z m527 -2374 c9 -30 21 -72 27 -93 6 -20 8 -40 5 -43 -10 -10 -110 -35 -116 -29 -2 3 5 65 17 138 12 72 25 157 29 187 l7 55 8 -80 c4 -43 15 -104 23 -135z m-1869 -138 c43 -204 46 -182 -22 -182 -93 0 -92 -2 -61 147 15 70 27 153 27 183 0 30 3 80 7 110 l7 55 8 -93 c4 -51 19 -150 34 -220z m-3130 130 c13 -40 24 -76 24 -81 0 -4 -26 1 -58 12 l-58 21 28 69 c15 38 29 76 29 86 1 9 4 5 6 -9 3 -14 16 -58 29 -98z m1294 5 c0 -52 87 -344 121 -409 9 -16 7 -18 -13 -14 -13 3 -50 8 -83 11 -53 6 -126 19 -163 31 -9 3 0 28 32 87 49 92 71 166 82 269 7 67 24 85 24 25z"/>
</g>
<g id="layer103" fill="#fdef03" stroke="none">
<path d="M7090 5468 c1 -29 5 -73 11 -98 5 -25 12 -61 15 -80 4 -19 26 -77 51 -128 96 -200 271 -329 471 -347 96 -8 92 4 61 -161 l-22 -114 -51 5 c-28 3 -87 9 -131 14 -44 5 -89 9 -100 8 -11 0 -56 0 -100 1 l-80 2 -23 73 c-12 39 -22 77 -22 83 0 6 -13 41 -30 77 l-30 66 -120 0 c-66 1 -176 6 -243 13 -166 16 -704 15 -720 -1 -23 -23 -22 -538 3 -860 15 -203 21 -372 20 -595 0 -171 4 -317 8 -324 7 -10 36 -11 148 -2 76 7 147 12 156 13 13 1 21 19 33 67 23 100 16 546 -12 740 -35 236 -49 423 -44 568 l1 22 211 0 211 0 -3 38 c-2 20 1 86 5 147 7 88 11 105 18 85 6 -14 32 -86 59 -160 26 -74 60 -166 74 -205 218 -580 301 -880 312 -1135 l6 -125 174 -3 c171 -2 175 -2 194 20 22 26 171 322 193 383 87 245 146 426 146 450 0 8 11 57 24 108 33 125 73 348 86 482 7 61 14 120 17 131 4 20 -1 23 -69 34 -40 6 -104 17 -142 24 l-68 12 128 13 c226 22 289 79 358 321 15 52 36 125 47 163 11 37 17 72 14 77 -3 6 -18 10 -33 10 -15 0 -97 11 -182 24 -223 36 -468 66 -615 76 -129 10 -309 26 -377 35 l-38 5 0 -52z m408 -1274 c61 -4 82 -10 82 -20 0 -8 -11 -56 -24 -107 -26 -102 -54 -256 -61 -331 -2 -27 -8 -53 -13 -58 -15 -15 -128 284 -159 422 -8 36 -17 76 -20 89 -6 23 -5 23 53 17 33 -3 96 -8 142 -12z"/>
<path d="M5565 4839 c-22 -4 -83 -13 -135 -19 -113 -13 -128 -24 -139 -101 -5 -30 -19 -110 -32 -179 -22 -113 -24 -151 -24 -410 0 -257 2 -297 23 -405 13 -66 27 -145 32 -175 4 -30 11 -67 15 -81 l6 -26 -124 -6 c-68 -4 -132 -9 -141 -13 -16 -6 -17 -18 -10 -115 3 -60 7 -134 8 -166 l1 -58 440 4 c242 2 441 4 443 6 8 7 15 89 19 217 l4 147 -150 -5 -149 -6 -7 48 c-3 27 -10 72 -15 99 -6 28 -12 64 -14 80 -2 17 -9 66 -16 110 -9 52 -13 189 -13 395 0 270 3 336 22 465 12 83 24 156 26 164 5 14 -12 42 -24 40 -3 -1 -24 -5 -46 -10z"/>
<path d="M5110 4777 c-3 -3 -74 -8 -159 -11 -98 -4 -158 -11 -165 -19 -19 -19 -122 -186 -157 -253 -14 -27 -78 -34 -313 -34 l-169 0 7 130 7 130 -58 0 c-32 0 -96 -5 -143 -11 -47 -6 -97 -11 -112 -11 -35 1 -42 -25 -59 -198 -27 -287 40 -534 267 -984 151 -299 208 -419 218 -453 7 -21 10 -22 134 -17 171 6 229 13 241 27 9 11 36 124 62 262 6 28 21 109 35 180 14 72 34 175 45 230 11 55 21 108 23 117 1 10 5 21 9 24 4 4 7 20 7 36 0 46 76 324 126 458 13 36 24 69 24 73 0 5 12 34 26 65 14 31 32 71 39 87 7 17 27 59 45 94 26 54 36 93 20 78z m-650 -662 c0 -3 -7 -22 -15 -41 -30 -72 -55 -241 -56 -377 -1 -127 -1 -131 -16 -97 -8 19 -19 37 -23 40 -18 11 -125 252 -152 339 -41 136 -43 130 55 134 169 6 207 7 207 2z"/>
<path d="M8180 4703 c0 -9 5 -42 10 -72 56 -306 85 -595 84 -831 -1 -161 -4 -208 -24 -360 -8 -67 -54 -263 -66 -282 -3 -4 -7 -16 -9 -27 -4 -20 14 -24 210 -37 78 -6 100 -4 109 7 6 8 56 50 111 93 186 147 391 371 535 585 24 36 47 68 51 71 3 3 15 20 26 38 l20 32 7 -97 c10 -145 9 -311 -2 -368 -6 -27 -8 -53 -6 -57 2 -3 0 -9 -6 -13 -5 -3 -10 -19 -10 -35 0 -29 -20 -80 -82 -209 -25 -51 -28 -65 -17 -72 8 -5 72 -7 143 -4 117 4 132 7 154 27 32 31 102 138 102 158 0 9 4 20 9 26 35 38 73 265 73 439 0 154 -31 393 -62 480 -10 28 -21 63 -24 78 -9 40 -78 179 -91 182 -105 25 -248 55 -275 57 -34 3 -35 2 -63 -67 -43 -106 -84 -190 -133 -272 -24 -41 -44 -81 -44 -89 0 -8 -4 -14 -10 -14 -11 0 -89 -119 -90 -136 0 -7 -6 -14 -14 -17 -16 -6 -112 -148 -108 -159 1 -5 -2 -8 -6 -8 -5 0 -23 -20 -42 -45 -18 -25 -35 -43 -37 -41 -2 2 -6 102 -8 222 -3 121 -8 251 -11 289 -3 39 -7 99 -10 134 -2 35 -7 68 -11 74 -3 5 -8 35 -10 66 -6 77 -39 193 -60 209 -9 6 -27 12 -39 12 -13 0 -69 11 -126 25 -123 30 -148 31 -148 8z"/>
<path d="M3650 4673 c-25 -2 -101 -15 -170 -28 -69 -14 -145 -27 -170 -30 -25 -3 -90 -14 -145 -24 -55 -11 -144 -27 -198 -36 -109 -19 -105 -16 -173 -137 -111 -195 -156 -407 -131 -607 15 -114 28 -180 47 -237 11 -32 20 -66 20 -74 0 -8 10 -44 23 -80 13 -36 36 -105 52 -155 15 -49 31 -99 36 -110 4 -11 11 -31 15 -45 14 -49 21 -51 252 -60 321 -12 609 -13 616 -2 12 20 -55 325 -74 337 -5 3 -94 1 -199 -5 -105 -5 -197 -7 -204 -4 -13 5 -57 110 -57 136 0 8 -3 18 -7 22 -11 11 -43 99 -43 118 0 19 37 24 255 34 77 3 143 8 146 10 4 2 -2 32 -13 66 -12 38 -23 107 -27 173 l-6 110 -35 1 c-35 1 -266 -20 -348 -31 l-42 -6 5 53 c8 83 22 151 38 190 l15 35 103 12 c96 11 173 21 291 36 50 6 78 31 78 68 0 20 22 71 80 189 34 68 40 92 21 86 -3 -1 -26 -3 -51 -5z"/>
<path d="M2668 4504 c-3 -3 -20 -7 -37 -9 -18 -2 -69 -11 -114 -19 -45 -8 -117 -20 -159 -27 -53 -8 -88 -20 -110 -36 -18 -14 -63 -44 -100 -68 -37 -24 -76 -52 -86 -62 -11 -10 -57 -45 -102 -78 -45 -33 -134 -112 -197 -175 l-116 -115 7 45 c9 53 62 172 97 215 13 16 59 65 102 107 42 43 77 80 77 83 0 7 -64 -2 -188 -27 l-103 -21 -62 -68 c-74 -81 -149 -201 -185 -296 -20 -54 -25 -87 -26 -158 0 -49 3 -101 6 -115 32 -140 84 -260 188 -440 21 -36 48 -84 59 -106 27 -52 27 -52 331 -60 317 -9 406 9 483 96 38 42 47 71 47 147 0 133 -99 351 -210 460 -60 60 -181 123 -235 123 -14 0 -25 5 -25 11 0 6 44 54 98 107 144 141 428 364 573 450 22 13 37 28 34 33 -7 10 -38 12 -47 3z m-790 -828 c62 -32 95 -68 128 -141 29 -63 35 -126 15 -162 -14 -28 -103 -56 -161 -51 l-41 3 -50 110 c-28 61 -63 145 -79 188 l-29 77 85 0 c70 0 93 -4 132 -24z"/>
<path d="M9644 4396 c-4 -9 -2 -22 4 -29 17 -21 63 -158 97 -287 36 -137 61 -349 51 -433 -3 -29 -9 -81 -12 -117 -3 -36 -20 -103 -36 -150 -16 -47 -32 -94 -35 -105 -3 -11 -11 -27 -17 -35 -6 -8 -16 -24 -22 -35 -6 -11 -23 -42 -37 -68 l-27 -48 78 7 c42 3 84 10 93 15 9 4 18 6 21 4 3 -3 29 0 59 5 30 6 86 15 124 20 104 15 341 84 470 137 81 34 189 85 195 92 3 4 27 20 55 36 70 40 137 106 171 167 27 49 29 60 28 148 -2 83 -6 103 -31 156 -50 105 -136 206 -238 280 -22 16 -45 34 -51 39 -23 22 -223 114 -300 138 -80 26 -111 29 -384 41 -85 4 -183 18 -233 32 -10 3 -20 -1 -23 -10z m707 -327 c137 -53 231 -159 260 -294 27 -129 -9 -231 -105 -301 -53 -38 -183 -80 -271 -88 l-70 -6 2 173 c0 94 -3 201 -8 237 -5 36 -11 92 -14 125 -6 65 -20 139 -30 168 -6 15 1 17 74 17 67 0 96 -5 162 -31z"/>
<path d="M1193 4215 c-167 -45 -371 -220 -409 -353 -15 -49 -15 -65 -4 -122 13 -64 86 -219 144 -305 l28 -40 -32 -3 c-17 -2 -44 1 -58 6 -55 19 -50 -1 21 -75 118 -123 245 -176 531 -219 131 -19 141 -12 85 68 -21 32 -39 60 -39 63 0 4 -13 26 -30 50 -16 24 -30 48 -30 54 0 7 -33 11 -89 11 -49 0 -101 4 -114 9 -18 7 -39 40 -80 123 -82 166 -101 228 -101 323 0 117 28 170 169 313 97 98 119 126 96 121 -3 -1 -43 -11 -88 -24z"/>
<path d="M10865 3470 c-11 -4 -39 -24 -62 -45 -34 -29 -47 -50 -63 -102 -22 -71 -26 -139 -10 -191 9 -33 8 -33 -43 21 -75 77 -103 90 -196 85 -70 -3 -81 -7 -136 -44 -90 -62 -147 -152 -168 -267 l-12 -66 -45 51 c-69 80 -178 119 -367 133 -150 11 -202 1 -275 -53 -85 -65 -168 -186 -168 -248 0 -42 -18 -35 -44 18 -53 112 -118 175 -240 232 -144 68 -368 102 -501 77 -72 -13 -187 -66 -235 -108 -19 -17 -65 -56 -102 -87 -37 -31 -86 -82 -110 -114 -41 -54 -93 -174 -100 -232 -3 -18 -10 -5 -26 46 -67 217 -276 388 -557 455 -27 7 -63 18 -80 25 -137 57 -222 77 -346 82 -70 2 -162 -1 -205 -6 -75 -11 -187 -47 -216 -71 -7 -6 -53 -41 -103 -78 -49 -37 -99 -78 -110 -92 -28 -35 -85 -130 -85 -142 0 -5 -12 -32 -26 -60 -41 -82 -80 -225 -95 -349 l-13 -115 -18 108 c-19 123 -33 158 -129 327 -56 100 -102 159 -147 189 -20 13 -48 32 -62 41 -55 37 -180 89 -280 116 -103 29 -109 29 -365 29 l-260 0 -65 -34 c-36 -19 -92 -57 -125 -86 -33 -28 -88 -73 -122 -100 -69 -52 -102 -91 -149 -174 l-32 -55 -32 65 c-46 90 -101 168 -149 212 -85 77 -307 157 -434 157 -57 0 -153 -25 -247 -65 -30 -13 -104 -33 -165 -45 -138 -27 -185 -49 -220 -102 -26 -39 -85 -205 -85 -239 0 -22 -31 -122 -36 -117 -2 3 -18 72 -35 154 -17 82 -38 164 -46 181 -36 76 -170 192 -312 269 -136 74 -308 44 -445 -77 -34 -29 -120 -148 -150 -206 -21 -42 -33 -42 -41 0 -35 159 -193 287 -355 287 -95 0 -137 -17 -206 -85 l-64 -63 -22 37 c-66 111 -174 165 -289 146 -44 -8 -52 -30 -20 -59 11 -10 41 -50 67 -89 44 -65 340 -389 384 -420 10 -7 59 -51 109 -99 92 -87 188 -158 284 -212 57 -31 314 -159 362 -181 95 -42 194 -84 225 -95 19 -7 39 -17 44 -22 6 -4 16 -8 24 -8 8 0 28 -7 45 -15 33 -15 115 -46 252 -94 44 -16 88 -32 97 -36 20 -8 30 9 64 104 15 42 23 57 24 41 1 -39 53 -182 70 -190 8 -5 51 -19 95 -33 72 -22 134 -40 335 -97 175 -50 568 -139 628 -142 l43 -3 44 81 c48 88 70 163 81 266 7 67 24 85 24 25 0 -61 102 -393 129 -420 19 -19 265 -46 478 -52 244 -8 385 2 495 35 321 94 403 113 517 119 l105 6 27 130 c16 72 29 162 29 200 1 39 5 90 9 115 6 41 7 36 14 -50 3 -52 18 -149 32 -215 15 -66 29 -137 32 -157 5 -35 9 -38 57 -52 28 -8 65 -18 81 -21 17 -4 66 -17 110 -30 298 -87 311 -88 471 -54 55 12 119 25 144 29 72 13 241 57 460 121 84 24 216 61 303 85 32 8 72 21 90 29 l32 13 24 154 c40 257 36 244 44 153 3 -44 13 -105 22 -135 9 -30 21 -72 27 -92 6 -21 16 -38 21 -38 11 0 33 7 152 45 39 13 144 47 235 75 91 29 193 63 228 76 34 13 70 24 80 24 10 0 22 4 28 9 5 4 34 16 64 26 30 10 89 30 130 45 41 15 91 33 110 40 19 6 78 27 130 47 52 19 110 39 128 44 17 6 32 13 32 17 0 4 8 8 18 9 22 1 136 42 174 63 10 6 23 10 29 10 6 0 37 11 68 24 31 13 101 43 156 67 138 58 326 157 345 180 3 3 25 19 50 34 45 28 63 42 260 196 102 80 521 492 607 595 l42 51 -37 35 c-70 68 -170 96 -237 68z"/>
</g>
<g id="layer104" fill="#fefefe" stroke="none">
<path d="M5625 5553 c-478 -9 -948 -25 -1180 -42 -148 -11 -333 -22 -410 -26 -201 -9 -517 -63 -767 -131 -48 -13 -92 -24 -99 -24 -45 0 -761 -232 -866 -281 -24 -10 -46 -19 -49 -19 -4 0 -32 -11 -63 -24 -31 -14 -101 -44 -156 -66 -129 -54 -436 -204 -549 -269 -48 -28 -90 -51 -92 -51 -3 0 -20 -11 -38 -25 -18 -14 -36 -25 -40 -25 -4 0 -57 -34 -118 -76 -76 -53 -108 -81 -104 -91 3 -8 6 -16 6 -18 0 -13 100 -69 151 -85 123 -40 255 -15 346 65 28 25 56 45 62 45 6 0 25 -9 43 -20 38 -23 95 -26 141 -6 36 15 111 89 134 132 8 16 21 41 29 56 l14 28 46 -35 c25 -19 55 -37 67 -40 227 -51 317 -56 383 -25 71 35 103 132 111 333 3 75 9 137 13 137 3 0 14 -16 23 -36 49 -102 166 -220 277 -279 61 -31 76 -35 146 -35 68 0 84 4 133 31 115 64 199 176 247 330 l26 80 24 -49 c47 -94 130 -160 265 -210 71 -26 81 -27 269 -27 213 0 263 8 367 56 72 34 118 83 161 172 20 41 31 55 31 40 2 -55 96 -114 206 -128 28 -3 84 -10 125 -15 148 -18 349 -30 533 -31 186 -2 187 -2 227 25 57 38 89 94 106 189 15 81 36 455 27 470 -2 4 -21 6 -41 5 -20 -2 -95 -4 -167 -5z"/>
<path d="M5866 5372 c-3 -103 -8 -228 -12 -278 -6 -84 -5 -93 14 -112 29 -29 101 -40 332 -51 415 -20 633 -24 677 -12 49 13 87 55 105 114 16 52 17 472 1 488 -6 6 -160 13 -389 19 -208 5 -456 12 -550 14 l-172 5 -6 -187z"/>
<path d="M7090 5468 c1 -29 5 -73 11 -98 5 -25 12 -61 15 -80 13 -71 93 -218 157 -286 74 -79 120 -112 212 -151 142 -60 488 -66 602 -11 89 44 140 122 187 288 15 52 36 125 47 163 11 37 17 72 14 77 -3 6 -18 10 -33 10 -15 0 -97 11 -182 24 -223 36 -468 66 -615 76 -129 10 -309 26 -377 35 l-38 5 0 -52z"/>
<path d="M8355 5303 c15 -150 91 -400 131 -434 8 -6 14 -18 14 -25 0 -25 133 -149 185 -174 138 -64 330 -22 442 98 l41 45 11 -41 c53 -194 177 -291 360 -280 55 3 92 12 133 32 60 28 139 101 166 151 l16 30 15 -61 c29 -110 126 -211 224 -234 64 -15 316 -12 368 3 63 19 125 61 159 109 17 22 30 45 30 49 0 5 -25 23 -55 41 -31 18 -77 45 -103 61 -80 47 -441 224 -497 243 -11 4 -42 17 -70 29 -27 12 -61 26 -75 30 -14 4 -38 13 -55 21 -75 34 -543 184 -574 184 -7 0 -50 11 -95 24 -133 38 -310 78 -656 146 -58 11 -109 20 -114 20 -4 0 -5 -30 -1 -67z"/>
<path d="M10712 4460 c-24 -133 56 -304 172 -370 45 -26 60 -30 135 -30 71 0 90 4 132 27 27 14 49 32 49 38 0 16 -123 132 -230 218 -47 37 -100 80 -118 94 -40 33 -115 83 -123 83 -4 0 -12 -27 -17 -60z"/>
<path d="M10865 3470 c-11 -4 -39 -24 -62 -45 -34 -29 -47 -50 -63 -102 -22 -71 -26 -139 -10 -191 9 -33 8 -33 -43 21 -75 77 -103 90 -196 85 -70 -3 -81 -7 -136 -44 -90 -62 -147 -152 -168 -267 l-12 -66 -45 51 c-69 80 -178 119 -367 133 -150 11 -202 1 -275 -53 -85 -65 -168 -186 -168 -248 0 -42 -18 -35 -44 18 -53 112 -118 175 -240 232 -144 68 -368 102 -501 77 -72 -13 -187 -66 -235 -108 -19 -17 -65 -56 -102 -87 -37 -31 -86 -82 -110 -114 -41 -54 -93 -174 -100 -232 -3 -18 -10 -5 -26 46 -67 217 -276 388 -557 455 -27 7 -63 18 -80 25 -137 57 -222 77 -346 82 -70 2 -162 -1 -205 -6 -75 -11 -187 -47 -216 -71 -7 -6 -53 -41 -103 -78 -49 -37 -99 -78 -110 -92 -28 -35 -85 -130 -85 -142 0 -5 -12 -32 -26 -60 -41 -82 -80 -225 -95 -349 l-13 -115 -18 108 c-19 123 -33 158 -129 327 -56 100 -102 159 -147 189 -20 13 -48 32 -62 41 -55 37 -180 89 -280 116 -103 29 -109 29 -365 29 l-260 0 -65 -34 c-36 -19 -92 -57 -125 -86 -33 -28 -88 -73 -122 -100 -69 -52 -102 -91 -149 -174 l-32 -55 -32 65 c-46 90 -101 168 -149 212 -85 77 -307 157 -434 157 -57 0 -153 -25 -247 -65 -30 -13 -104 -33 -165 -45 -138 -27 -185 -49 -220 -102 -26 -39 -85 -205 -85 -239 0 -22 -31 -122 -36 -117 -2 3 -18 72 -35 154 -17 82 -38 164 -46 181 -36 77 -168 191 -316 272 -57 31 -69 34 -152 35 -81 0 -97 -3 -155 -31 -121 -57 -190 -126 -272 -270 -17 -29 -34 -53 -38 -53 -5 0 -12 15 -15 33 -35 159 -193 287 -355 287 -95 0 -137 -17 -206 -85 l-64 -63 -22 37 c-66 111 -174 165 -289 146 -44 -8 -52 -30 -20 -59 11 -10 41 -50 67 -89 44 -65 340 -389 384 -420 10 -7 59 -51 109 -99 92 -87 188 -158 284 -212 57 -31 314 -159 362 -181 95 -42 194 -84 225 -95 19 -7 39 -17 44 -22 6 -4 16 -8 24 -8 8 0 28 -7 45 -15 33 -15 115 -46 252 -94 44 -16 88 -32 97 -36 20 -8 30 9 64 104 15 42 23 57 24 41 1 -39 53 -182 70 -190 8 -5 51 -19 95 -33 72 -22 134 -40 335 -97 175 -50 568 -139 628 -142 l43 -3 44 81 c48 88 70 163 81 266 7 67 24 85 24 25 0 -61 102 -393 129 -420 19 -19 265 -46 478 -52 244 -8 385 2 495 35 321 94 403 113 517 119 l105 6 27 130 c16 72 29 162 29 200 1 39 5 90 9 115 6 41 7 36 14 -50 3 -52 18 -149 32 -215 15 -66 29 -137 32 -157 5 -35 9 -38 57 -52 28 -8 65 -18 81 -21 17 -4 66 -17 110 -30 298 -87 311 -88 471 -54 55 12 119 25 144 29 72 13 241 57 460 121 84 24 216 61 303 85 32 8 72 21 90 29 l32 13 24 154 c40 257 36 244 44 153 3 -44 13 -105 22 -135 9 -30 21 -72 27 -92 6 -21 16 -38 21 -38 11 0 33 7 152 45 39 13 144 47 235 75 91 29 193 63 228 76 34 13 70 24 80 24 10 0 22 4 28 9 5 4 34 16 64 26 30 10 89 30 130 45 41 15 91 33 110 40 19 6 78 27 130 47 52 19 110 39 128 44 17 6 32 13 32 17 0 4 8 8 18 9 22 1 136 42 174 63 10 6 23 10 29 10 6 0 37 11 68 24 31 13 101 43 156 67 138 58 326 157 345 180 3 3 25 19 50 34 45 28 63 42 260 196 102 80 521 492 607 595 l42 51 -37 35 c-70 68 -170 96 -237 68z"/>
</g>


</svg>